<svg width="112" height="24" viewBox="0 0 112 24" fill="none" xmlns="http://www.w3.org/2000/svg">
    <path d="M15.7305 23.6328C15.6133 21.5312 15.5 19.4297 15.3906 17.3281C15.2812 15.2188 15.0547 13.125 14.7109 11.0469C14.0234 12.2656 13.3008 13.4609 12.543 14.6328C11.7852 15.8047 11.0195 16.9727 10.2461 18.1367C9.86328 18.707 9.42969 19.3242 8.94531 19.9883C8.46094 20.6445 8.08203 21.2773 7.80859 21.8867C7.41797 22.2305 7 22.543 6.55469 22.8242C6.11719 23.0977 5.67578 23.3672 5.23047 23.6328C5.13672 22.9375 5.09375 22.2383 5.10156 21.5352C5.10938 20.8242 5.11328 20.1172 5.11328 19.4141C5.11328 19.0234 5.09766 18.4258 5.06641 17.6211C5.04297 16.8164 4.99219 15.9102 4.91406 14.9023C4.83594 13.8867 4.71875 12.8594 4.5625 11.8203C4.40625 10.7812 4.19922 9.82422 3.94141 8.94922C3.68359 8.06641 3.36328 7.35547 2.98047 6.81641C2.59766 6.26953 2.13672 5.99609 1.59766 5.99609C1.33984 5.99609 1.08594 6.03516 0.835938 6.11328C0.585938 6.19141 0.347656 6.29297 0.121094 6.41797C0.441406 6.13672 0.847656 5.82422 1.33984 5.48047C1.83984 5.12891 2.35547 4.82812 2.88672 4.57812C3.42578 4.32813 3.91797 4.20312 4.36328 4.20312C4.60547 4.20312 4.80078 4.24219 4.94922 4.32031C5.10547 4.39844 5.26562 4.51953 5.42969 4.68359C5.75781 4.99609 6.03906 5.51953 6.27344 6.25391C6.51562 6.98828 6.71875 7.85156 6.88281 8.84375C7.04688 9.82812 7.17969 10.8672 7.28125 11.9609C7.39062 13.0547 7.47656 14.1289 7.53906 15.1836C7.60156 16.2305 7.64453 17.1836 7.66797 18.043C7.69922 18.9023 7.71875 19.5781 7.72656 20.0703C8.08594 19.5156 8.51953 18.8516 9.02734 18.0781C9.53516 17.2969 10.0586 16.457 10.5977 15.5586C11.1445 14.6602 11.6523 13.7578 12.1211 12.8516C12.5898 11.9375 12.9727 11.0664 13.2695 10.2383C13.5664 9.40234 13.7148 8.66016 13.7148 8.01172C13.7148 7.68359 13.668 7.36328 13.5742 7.05078C13.4883 6.73047 13.3359 6.44141 13.1172 6.18359C13.5547 5.91016 13.9805 5.62109 14.3945 5.31641C14.8086 5.00391 15.2305 4.70313 15.6602 4.41406C15.9414 4.69531 16.1992 5.21094 16.4336 5.96094C16.6758 6.71094 16.8906 7.60156 17.0781 8.63281C17.2734 9.65625 17.4453 10.7383 17.5938 11.8789C17.7422 13.0195 17.8711 14.1367 17.9805 15.2305C18.0898 16.3164 18.1758 17.2969 18.2383 18.1719C18.3008 19.0391 18.3398 19.707 18.3555 20.1758C18.6602 19.7695 19.043 19.2461 19.5039 18.6055C19.9727 17.957 20.4766 17.2383 21.0156 16.4492C21.5547 15.6602 22.0859 14.8477 22.6094 14.0117C23.1406 13.168 23.625 12.3438 24.0625 11.5391C24.5 10.7344 24.8516 9.98828 25.1172 9.30078C25.3828 8.61328 25.5156 8.03516 25.5156 7.56641C25.5156 7.15234 25.4141 6.76953 25.2109 6.41797C25.0156 6.06641 24.6797 5.89062 24.2031 5.89062C24.0391 5.89062 23.875 5.91016 23.7109 5.94922C23.5469 5.98828 23.3867 6.03906 23.2305 6.10156C23.6055 5.91406 23.9766 5.66797 24.3438 5.36328C24.7109 5.05859 25.0859 4.78516 25.4688 4.54297C25.8594 4.30078 26.2734 4.17969 26.7109 4.17969C27.1875 4.17969 27.5469 4.33203 27.7891 4.63672C28.0391 4.93359 28.1641 5.30859 28.1641 5.76172C28.1641 5.94922 28.1445 6.125 28.1055 6.28906C28.0195 6.70312 27.8086 7.24219 27.4727 7.90625C27.1445 8.57031 26.7383 9.30859 26.2539 10.1211C25.7773 10.9258 25.2617 11.7617 24.707 12.6289C24.1602 13.4883 23.6133 14.3281 23.0664 15.1484C22.5273 15.9688 22.0273 16.7188 21.5664 17.3984C21.1133 18.0781 20.75 18.6406 20.4766 19.0859C20.1719 19.5703 19.8789 20.0586 19.5977 20.5508C19.3242 21.043 18.9805 21.4883 18.5664 21.8867C18.2227 22.207 17.7695 22.5234 17.207 22.8359C16.6523 23.1406 16.1602 23.4062 15.7305 23.6328ZM30.4727 18.1836C30.5195 18.9961 30.7539 19.6406 31.1758 20.1172C31.5977 20.5859 32.1328 20.9258 32.7812 21.1367C33.4375 21.3398 34.1211 21.4414 34.832 21.4414C35.4805 21.4414 36.1289 21.3672 36.7773 21.2188C37.4336 21.0625 38.0625 20.8633 38.6641 20.6211C38.0938 21.1289 37.4297 21.5781 36.6719 21.9688C35.9219 22.3516 35.1367 22.6523 34.3164 22.8711C33.5039 23.082 32.7148 23.1875 31.9492 23.1875C31.168 23.1875 30.4531 23.0117 29.8047 22.6602C29.1641 22.3008 28.6484 21.8125 28.2578 21.1953C27.875 20.5703 27.6836 19.8594 27.6836 19.0625C27.6836 18.7891 27.7109 18.5234 27.7656 18.2656C27.9219 17.4922 28.2344 16.7422 28.7031 16.0156C29.1797 15.2891 29.75 14.6094 30.4141 13.9766C31.0781 13.3438 31.7812 12.7852 32.5234 12.3008C33.2656 11.8164 33.9805 11.4297 34.668 11.1406C35.2539 10.8906 35.8594 10.6953 36.4844 10.5547C37.1172 10.4062 37.7539 10.332 38.3945 10.332C38.8633 10.332 39.2852 10.4688 39.6602 10.7422C40.043 11.0078 40.2344 11.3945 40.2344 11.9023C40.2344 12.3477 40.0469 12.793 39.6719 13.2383C39.2969 13.6758 38.8008 14.1016 38.1836 14.5156C37.5664 14.9297 36.8906 15.3242 36.1562 15.6992C35.4219 16.0664 34.6875 16.4102 33.9531 16.7305C33.2188 17.0508 32.543 17.3359 31.9258 17.5859C31.3164 17.8281 30.832 18.0273 30.4727 18.1836ZM35.1016 12.1602C34.0547 12.1602 33.1953 12.418 32.5234 12.9336C31.8516 13.4414 31.3477 14.1055 31.0117 14.9258C30.6836 15.7461 30.5039 16.6211 30.4727 17.5508C30.7383 17.4961 31.1406 17.375 31.6797 17.1875C32.2266 16.9922 32.8242 16.7539 33.4727 16.4727C34.1289 16.1836 34.7539 15.875 35.3477 15.5469C35.9414 15.2109 36.4297 14.875 36.8125 14.5391C37.2031 14.2031 37.3984 13.8867 37.3984 13.5898C37.3984 13.2695 37.2617 13.0039 36.9883 12.793C36.7148 12.5742 36.3945 12.4141 36.0273 12.3125C35.668 12.2109 35.3594 12.1602 35.1016 12.1602ZM51.9062 20.3047C51.9062 20.7188 52.0156 21.0117 52.2344 21.1836C52.4531 21.3555 52.7656 21.4414 53.1719 21.4414C53.4375 21.4414 53.6953 21.4141 53.9453 21.3594C53.6094 21.6172 53.2422 21.8906 52.8438 22.1797C52.4531 22.4688 52.043 22.7148 51.6133 22.918C51.1914 23.1133 50.7539 23.2109 50.3008 23.2109C49.9258 23.2109 49.6172 23.1445 49.375 23.0117C49.1406 22.8789 49.0234 22.6016 49.0234 22.1797C49.0234 22.0312 49.0312 21.8867 49.0469 21.7461C49.0703 21.5977 49.0977 21.4531 49.1289 21.3125C48.707 21.5859 48.2656 21.875 47.8047 22.1797C47.3438 22.4844 46.8672 22.7422 46.375 22.9531C45.8828 23.1641 45.3711 23.2695 44.8398 23.2695C43.6602 23.2695 42.7617 22.9453 42.1445 22.2969C41.5352 21.6406 41.2305 20.7305 41.2305 19.5664C41.2305 18.3789 41.4844 17.2305 41.9922 16.1211C42.5 15.0039 43.1875 14 44.0547 13.1094C44.9297 12.2188 45.918 11.5117 47.0195 10.9883C48.1289 10.4648 49.2773 10.2031 50.4648 10.2031C51.0352 10.2031 51.5859 10.2891 52.1172 10.4609C52.6562 10.6328 53.1953 10.793 53.7344 10.9414L52.0117 19.4258C51.9805 19.5664 51.9531 19.7109 51.9297 19.8594C51.9141 20.0078 51.9062 20.1562 51.9062 20.3047ZM50.6523 13.8008C50.1445 12.5508 49.2188 11.9258 47.875 11.9258C47.1875 11.9258 46.5977 12.1523 46.1055 12.6055C45.6211 13.0508 45.2227 13.6172 44.9102 14.3047C44.6055 14.9844 44.3789 15.6875 44.2305 16.4141C44.0898 17.1328 44.0195 17.7617 44.0195 18.3008C44.0195 19.3477 44.2734 20.1484 44.7812 20.7031C45.2969 21.25 46.0859 21.5234 47.1484 21.5234C47.3594 21.5234 47.6289 21.4609 47.957 21.3359C48.293 21.2031 48.6016 21.0391 48.8828 20.8438C49.1641 20.6406 49.3281 20.4258 49.375 20.1992L50.6523 13.8008ZM67.1172 10.0508C66.9609 10.0742 66.7578 10.1758 66.5078 10.3555C66.2656 10.5352 66 10.7422 65.7109 10.9766C65.4297 11.2031 65.1562 11.4023 64.8906 11.5742C64.6328 11.7383 64.418 11.8203 64.2461 11.8203H62.6406L61.2578 18.7227C61.2188 18.918 61.1836 19.1172 61.1523 19.3203C61.1289 19.5234 61.1172 19.7227 61.1172 19.918C61.1172 20.5117 61.2695 20.9375 61.5742 21.1953C61.8867 21.4453 62.3281 21.5703 62.8984 21.5703C63.1953 21.5703 63.4844 21.5234 63.7656 21.4297C64.0547 21.3359 64.3281 21.2266 64.5859 21.1016C64.0859 21.7422 63.4375 22.2578 62.6406 22.6484C61.8438 23.0391 61.0352 23.2344 60.2148 23.2344C59.543 23.2344 59.0664 23.0352 58.7852 22.6367C58.5117 22.2383 58.375 21.7305 58.375 21.1133C58.375 20.9023 58.3867 20.6914 58.4102 20.4805C58.4336 20.2695 58.4688 20.0625 58.5156 19.8594L60.1211 11.8203H58.4336L60.4141 10.4961L60.7422 8.66797C61.0781 8.43359 61.4141 8.20703 61.75 7.98828C62.0938 7.76953 62.4453 7.56641 62.8047 7.37891C62.9453 7.30859 63.0859 7.23828 63.2266 7.16797C63.375 7.09766 63.5078 7.00781 63.625 6.89844L62.9922 10.0508H67.1172ZM81.1797 21.2539C80.6719 21.7695 80.082 22.2266 79.4102 22.625C78.7461 23.0156 78.0391 23.2109 77.2891 23.2109C76.5078 23.2109 76.1172 22.8242 76.1172 22.0508C76.1172 21.7695 76.1445 21.4922 76.1992 21.2188C76.2617 20.9375 76.3242 20.6602 76.3867 20.3867C76.543 19.582 76.7031 18.7812 76.8672 17.9844C77.0391 17.1797 77.207 16.375 77.3711 15.5703C77.418 15.3203 77.4609 15.0703 77.5 14.8203C77.5391 14.5625 77.5586 14.3086 77.5586 14.0586C77.5586 13.3008 77.3242 12.8125 76.8555 12.5938C76.3945 12.375 75.832 12.2656 75.168 12.2656C74.4258 12.2656 73.8398 12.4766 73.4102 12.8984C72.9805 13.3203 72.6523 13.8438 72.4258 14.4688C72.1992 15.0859 72.0234 15.6914 71.8984 16.2852C71.7734 16.9336 71.6484 17.5859 71.5234 18.2422C71.3984 18.8984 71.2734 19.5508 71.1484 20.1992C71.125 20.3086 71.1016 20.418 71.0781 20.5273C71.0625 20.6367 71.0547 20.7461 71.0547 20.8555C71.0547 21.2617 71.2461 21.4648 71.6289 21.4648C71.7695 21.4648 71.9102 21.4453 72.0508 21.4062C72.1992 21.3594 72.3398 21.3086 72.4727 21.2539C72.168 21.7539 71.7422 22.207 71.1953 22.6133C70.6484 23.0117 70.0703 23.2109 69.4609 23.2109C69.0469 23.2109 68.7656 23.0703 68.6172 22.7891C68.4766 22.5078 68.4062 22.1875 68.4062 21.8281C68.4062 21.625 68.4219 21.4219 68.4531 21.2188C68.4844 21.0078 68.5195 20.8008 68.5586 20.5977L71.5117 5.84375C71.543 5.67187 71.5703 5.5 71.5938 5.32812C71.625 5.15625 71.6406 4.98047 71.6406 4.80078C71.6406 4.52734 71.582 4.29297 71.4648 4.09766C71.3555 3.90234 71.1406 3.80469 70.8203 3.80469C70.625 3.80469 70.4297 3.82422 70.2344 3.86328C70.0391 3.89453 69.8438 3.9375 69.6484 3.99219C70.5234 3.41406 71.4141 2.86328 72.3203 2.33984C73.2344 1.80859 74.1484 1.28516 75.0625 0.769531L72.6719 12.582C73.1406 12.2461 73.6641 11.918 74.2422 11.5977C74.8203 11.2695 75.418 11 76.0352 10.7891C76.6523 10.5781 77.2578 10.4727 77.8516 10.4727C78.4922 10.4727 79.0742 10.6523 79.5977 11.0117C80.1289 11.3711 80.3945 11.9023 80.3945 12.6055C80.3945 12.7617 80.3789 12.9219 80.3477 13.0859L79.0703 19.6367C79.0391 19.8008 79.0078 19.9688 78.9766 20.1406C78.9531 20.3047 78.9414 20.4727 78.9414 20.6445C78.9414 20.9961 79.0352 21.2383 79.2227 21.3711C79.4102 21.5039 79.668 21.5703 79.9961 21.5703C80.1992 21.5703 80.3984 21.5352 80.5938 21.4648C80.7969 21.3945 80.9922 21.3242 81.1797 21.2539ZM86.418 18.1836C86.4648 18.9961 86.6992 19.6406 87.1211 20.1172C87.543 20.5859 88.0781 20.9258 88.7266 21.1367C89.3828 21.3398 90.0664 21.4414 90.7773 21.4414C91.4258 21.4414 92.0742 21.3672 92.7227 21.2188C93.3789 21.0625 94.0078 20.8633 94.6094 20.6211C94.0391 21.1289 93.375 21.5781 92.6172 21.9688C91.8672 22.3516 91.082 22.6523 90.2617 22.8711C89.4492 23.082 88.6602 23.1875 87.8945 23.1875C87.1133 23.1875 86.3984 23.0117 85.75 22.6602C85.1094 22.3008 84.5938 21.8125 84.2031 21.1953C83.8203 20.5703 83.6289 19.8594 83.6289 19.0625C83.6289 18.7891 83.6562 18.5234 83.7109 18.2656C83.8672 17.4922 84.1797 16.7422 84.6484 16.0156C85.125 15.2891 85.6953 14.6094 86.3594 13.9766C87.0234 13.3438 87.7266 12.7852 88.4688 12.3008C89.2109 11.8164 89.9258 11.4297 90.6133 11.1406C91.1992 10.8906 91.8047 10.6953 92.4297 10.5547C93.0625 10.4062 93.6992 10.332 94.3398 10.332C94.8086 10.332 95.2305 10.4688 95.6055 10.7422C95.9883 11.0078 96.1797 11.3945 96.1797 11.9023C96.1797 12.3477 95.9922 12.793 95.6172 13.2383C95.2422 13.6758 94.7461 14.1016 94.1289 14.5156C93.5117 14.9297 92.8359 15.3242 92.1016 15.6992C91.3672 16.0664 90.6328 16.4102 89.8984 16.7305C89.1641 17.0508 88.4883 17.3359 87.8711 17.5859C87.2617 17.8281 86.7773 18.0273 86.418 18.1836ZM91.0469 12.1602C90 12.1602 89.1406 12.418 88.4688 12.9336C87.7969 13.4414 87.293 14.1055 86.957 14.9258C86.6289 15.7461 86.4492 16.6211 86.418 17.5508C86.6836 17.4961 87.0859 17.375 87.625 17.1875C88.1719 16.9922 88.7695 16.7539 89.418 16.4727C90.0742 16.1836 90.6992 15.875 91.293 15.5469C91.8867 15.2109 92.375 14.875 92.7578 14.5391C93.1484 14.2031 93.3438 13.8867 93.3438 13.5898C93.3438 13.2695 93.207 13.0039 92.9336 12.793C92.6602 12.5742 92.3398 12.4141 91.9727 12.3125C91.6133 12.2109 91.3047 12.1602 91.0469 12.1602ZM111.379 10.4375C111.02 10.8906 110.574 11.293 110.043 11.6445C109.512 11.9883 108.941 12.2578 108.332 12.4531C107.73 12.6484 107.145 12.7461 106.574 12.7461C106.23 12.7461 105.91 12.6797 105.613 12.5469C105.316 12.4062 105.016 12.2695 104.711 12.1367C104.414 11.9961 104.098 11.9258 103.762 11.9258C103.426 11.9258 103.129 12.1133 102.871 12.4883C102.613 12.8633 102.387 13.3398 102.191 13.918C101.996 14.4961 101.828 15.1055 101.688 15.7461C101.547 16.3789 101.43 16.9648 101.336 17.5039C101.242 18.043 101.168 18.4492 101.113 18.7227C101.051 19.0273 100.977 19.3359 100.891 19.6484C100.812 19.9531 100.773 20.2656 100.773 20.5859C100.773 20.8359 100.824 21.0547 100.926 21.2422C101.035 21.4297 101.234 21.5234 101.523 21.5234C101.711 21.5234 101.918 21.4766 102.145 21.3828C101.762 21.6562 101.43 21.9414 101.148 22.2383C100.867 22.5273 100.562 22.7734 100.234 22.9766C99.9062 23.1719 99.4727 23.2695 98.9336 23.2695C98.668 23.2695 98.4297 23.1836 98.2188 23.0117C98.0078 22.8477 97.9023 22.625 97.9023 22.3438C97.9023 22.2734 97.9102 22.2031 97.9258 22.1328C98.1914 20.7969 98.4648 19.4609 98.7461 18.125C99.0352 16.7891 99.3086 15.4531 99.5664 14.1172C99.5977 13.9609 99.625 13.8047 99.6484 13.6484C99.6797 13.4844 99.6953 13.3242 99.6953 13.168C99.6953 12.7617 99.582 12.4883 99.3555 12.3477C99.1367 12.207 98.8398 12.1367 98.4648 12.1367C98.1211 12.1367 97.7656 12.1953 97.3984 12.3125C97.3672 12.3281 97.3398 12.3398 97.3164 12.3477C97.3164 12.3477 97.3438 12.3359 97.3984 12.3125C97.8047 12.1719 98.1406 11.9961 98.4062 11.7852C98.6719 11.5664 98.9297 11.3477 99.1797 11.1289C99.4375 10.9102 99.7344 10.7305 100.07 10.5898C100.414 10.4414 100.859 10.3672 101.406 10.3672C102.148 10.3672 102.52 10.7227 102.52 11.4336C102.52 11.5742 102.512 11.7109 102.496 11.8438C102.488 11.9766 102.473 12.1094 102.449 12.2422C102.887 11.9844 103.387 11.6914 103.949 11.3633C104.52 11.0352 105.098 10.7539 105.684 10.5195C106.277 10.2773 106.828 10.1562 107.336 10.1562C107.695 10.1562 108.023 10.2266 108.32 10.3672C108.617 10.5 108.895 10.6367 109.152 10.7773C109.418 10.9102 109.676 10.9766 109.926 10.9766C110.16 10.9766 110.41 10.918 110.676 10.8008C110.949 10.6758 111.184 10.5547 111.379 10.4375Z" fill="#363739" fill-opacity="0.83"/>
</svg>
